<svg width="1920" height="1080" viewBox="0 0 1920 1080" fill="none" xmlns="http://www.w3.org/2000/svg">
    <path d="M0 728C0 728 52.2574 752.204 72 781C111.839 839.109 16.8378 897.575 49.5 960C94.4305 1045.87 336.661 919.288 293.372 1006C273.05 1046.71 200.5 1083.5 200.5 1083.5L0 1079.5V728Z" fill="#EF5DA8"/>
    <path d="M1544 0H1920V436C1920 436 1853.39 431.511 1807.5 415.5C1761.61 399.489 1720.82 386.844 1685 354C1626.39 300.265 1702.56 218.842 1659.5 152C1607.76 71.6859 1378.26 118.327 1439.5 45C1467.98 10.8973 1544 0 1544 0Z" fill="#EF5DA8"/>
    <path d="M1774.91 0H1920.41V283.5C1920.41 283.5 1853 283.5 1811.41 271.5C1750.32 253.876 1695.68 235.455 1681.41 173.5C1672.34 134.13 1682.18 107.532 1701.41 72C1720.53 36.6607 1774.91 0 1774.91 0Z" fill="#F178B6"/>
</svg>
