<svg width="783" height="564" viewBox="0 0 783 564" fill="none" xmlns="http://www.w3.org/2000/svg">
    <path d="M0 170C0 170 23.0966 6.31264 99.5 1.00005C179.357 -4.55269 204.5 105.5 215.5 170C226.5 234.5 217.857 279.343 255.5 333C322.711 428.802 430.525 386.68 545.5 408.5C614 421.5 663.625 447.719 722 498.5C748.272 521.354 782.5 564 782.5 564H0V170Z" fill="#F178B6"/>
    <path d="M2.76566e-05 237.5C2.76566e-05 237.5 12.8859 274.975 37 325.5C79 413.5 162.588 407.202 215.5 414.5C259 420.5 304.247 443.391 292 496C278.535 553.84 100 564 100 564H0L2.76566e-05 237.5Z" fill="#EF5DA8"/>
</svg>
