<svg width="1920" height="1080" viewBox="0 0 1920 1080" fill="none" xmlns="http://www.w3.org/2000/svg">
    <path d="M1920 1079.96H1465.08C1465.08 1079.96 1463.57 1036.7 1474.58 1012.46C1510.03 934.423 1779.74 1060.21 1833.51 993.463C1879.89 935.894 1785.01 855.751 1851.51 823.469C1875.72 811.719 1920 815.97 1920 815.97V1079.96Z" fill="#EF5DA8"/>
    <path d="M1920 1079.96H1688.54C1688.54 1079.96 1503.07 1082.46 1522.07 1031.96C1541.06 981.463 1821.73 1089.71 1875.51 1022.96C1921.89 965.393 1866.01 929.965 1873.01 904.466C1885.05 860.591 1920 871.467 1920 871.467V1079.96Z" fill="#F178B6"/>
    <path d="M145.297 329.488C99.1536 363.403 0.321777 351.487 0.321777 351.487V3.05176e-05H671.5C671.5 3.05176e-05 712.001 75.0053 634 123C482.892 215.979 293.558 -5.87422 193.289 140.495C143.086 213.78 216.872 276.88 145.297 329.488Z" fill="#F178B6"/>
    <path d="M123.803 273.49C77.6596 307.406 0.000732422 220.992 0.000732422 220.992V0.470398H580.726C580.726 0.470398 601.104 53.4816 539 81C422.766 132.504 245.245 -54.8723 144.976 91.4967C94.7729 164.782 195.378 220.882 123.803 273.49Z" fill="#EF5DA8"/>
</svg>
