<svg width="758" height="1080" viewBox="0 0 758 1080" fill="none" xmlns="http://www.w3.org/2000/svg">
    <path d="M392 0H0.5V430.5C0.5 430.5 169.314 450.03 206 418.5C298.5 339 212.5 212 272 129.5C335.783 41.0616 745 124 757 69C769 14 392 0 392 0Z" fill="#F178B6"/>
    <path d="M0 656C0 656 59.9819 675.409 87 703C147.855 765.146 43.1933 857.161 97 925.5C145.494 987.091 293.09 916.478 285.5 994.5C279.184 1059.43 142 1080 142 1080H0V656Z" fill="#EF5DA8"/>
    <path d="M150 754C193.173 724.384 228.623 794.154 252 841C265.11 867.273 281 886.776 270 914C251.223 960.468 176.829 910.833 150 868.5C126.063 830.731 113.127 779.294 150 754Z" fill="#393A34"/>
    <path d="M141.687 0H0.246704V142.981C0.246704 142.981 -6.19078 259.434 46.7011 275.964C77.4831 285.584 91.6234 277.331 117.781 258.391C163.862 225.024 107.815 160.001 141.687 114.173C161.527 87.3284 206.332 94.9374 208.92 61.5932C211.684 25.9865 141.687 0 141.687 0Z" fill="#EF5DA8"/>
</svg>
