<svg width="1920" height="1080" viewBox="0 0 1920 1080" fill="none" xmlns="http://www.w3.org/2000/svg">
    <path d="M1021 49C1025.86 28.6755 1042.5 0 1042.5 0H1920V708.319C1920 708.319 1857.57 1094.5 1744 1094.5C1629.44 1094.5 1557 669 1508 562C1451.7 439.051 1324.75 303.953 1220.5 224.5C1117.5 146 1001.53 130.5 1021 49Z" fill="#F178B6"/>
    <path d="M1618.52 0H1920V116.518C1920 116.518 1893.85 152.384 1868.29 162.293C1816.24 182.475 1792.51 114.023 1736.84 106.531C1690.91 100.35 1657.36 140.607 1618.52 116.518C1591.64 99.8441 1571.25 80.1493 1575.58 49.9363C1579.16 24.988 1618.52 0 1618.52 0Z" fill="#EF5DA8"/>
    <path d="M0 721.809C0 721.809 71.5438 686.252 121.759 676.422C175 666 235.971 672.254 261.847 721.809C298.5 792 224.549 898.11 231.735 978.186C238 1048 326 1080 326 1080H0V721.809Z" fill="#F178B6"/>
    <path d="M209.5 800C240.565 769.21 282.435 800.88 313.5 831.671C344.842 862.736 344.842 913.605 313.5 944.67C282.435 975.461 236.065 1009.29 205 978.5C173.658 947.435 178.158 831.065 209.5 800Z" fill="#EF5DA8"/>
    <path d="M0 0H559C559 0 442.524 36.5769 434 75.5C419.752 140.562 508.039 191.648 480.979 252.881C438.551 348.89 308.779 197.451 200 204.5C110.727 210.285 0 252.881 0 252.881V0Z" fill="#EF5DA8"/>
    <path d="M1611.11 657.188C1655.92 631.436 1691.61 628.688 1708.61 728.188C1725.61 827.688 1778.61 972.188 1708.61 1001.19C1638.61 1030.19 1302.11 1007.19 1254.11 1001.19C1206.11 995.188 1192.14 950.194 1243.61 914.688C1308.11 870.188 1522.67 984.142 1584.61 890.188C1624.18 830.156 1548.77 693.014 1611.11 657.188Z" fill="#393A34"/>
</svg>
