<svg width="1920" height="1080" viewBox="0 0 1920 1080" fill="none" xmlns="http://www.w3.org/2000/svg">
    <path d="M54.5005 285.5C41.0005 333.5 0.0010376 322 0.0010376 322V0.470428H317.001C317.001 0.470428 324.978 25.7986 266 59.5C210 91.5 115.57 66.4189 80.0005 91.5C41.0005 119 78.5503 199.989 54.5005 285.5Z" fill="#EF5DA8"/>
    <path d="M1144 0H1920V861C1920 861 1705.77 1064.38 1549 1033.5C1342.87 992.9 1405.67 737.886 1295.5 559C1197.93 400.578 972.585 346.312 1024 167.5C1046.24 90.1661 1144 0 1144 0Z" fill="#F178B6"/>
    <path d="M1475 0H1920V340C1920 340 1903.96 816.334 1810 792.5C1695.63 763.489 1743.59 434.795 1631 399.5C1553.53 375.214 1386.5 308.5 1329 144C1281.31 7.55389 1475 0 1475 0Z" fill="#EF5DA8"/>
    <path d="M0 727C0 727 74.6786 624.12 144.5 621.5C218.155 618.737 301 650.5 301 727C301 803.5 239.36 830.994 250 901C264.649 997.381 424 1080 424 1080H0V727Z" fill="#EF5DA8"/>
    <path d="M215.535 783.5C248.035 774.5 317.035 812.5 317.035 872C317.035 931.5 269.035 976 229.034 976C189.034 976 190.499 967 190.499 916.5C190.499 866 183.035 792.5 215.535 783.5Z" fill="#F178B6"/>
    <path d="M1449 939.5C1453.5 935.17 1469.5 917 1488.5 864C1507.5 811 1515.9 797.608 1538 800.5C1566.5 804.231 1579.45 928.057 1538 999.5C1500 1065 1420.48 1076.06 1358.5 1030.5C1327.82 1007.95 1277.41 987.847 1287 951C1296.5 914.5 1403.3 983.478 1449 939.5Z" fill="#393A34"/>
</svg>
