<svg width="1920" height="1080" viewBox="0 0 1920 1080" fill="none" xmlns="http://www.w3.org/2000/svg">
    <path d="M0 0H455C455 0 456.512 43.2641 445.5 67.5C410.041 145.542 140.283 19.7519 86.5 86.5C40.1118 144.071 135.014 224.217 68.5 256.5C44.2901 268.25 0 264 0 264V0Z" fill="#EF5DA8"/>
    <path d="M0 1.93715e-07H231.5C231.5 1.93715e-07 417 -2.5 398 48C379 98.5 98.2832 -9.74807 44.5 57C-1.88824 114.571 54 150 47 175.5C34.9554 219.377 0 208.5 0 208.5V1.93715e-07Z" fill="#F178B6"/>
    <path d="M1775 750.5C1821.15 716.583 1920 728.5 1920 728.5V1080H1283.5C1283.5 1080 1266.63 967.753 1296 906.5C1372.72 746.511 1626.71 1085.87 1727 939.5C1777.21 866.212 1703.41 803.11 1775 750.5Z" fill="#F178B6"/>
    <path d="M1796.5 806.5C1842.65 772.583 1920.32 859 1920.32 859V1079.53H1339.5C1339.5 1079.53 1358.63 1032.25 1388 971C1464.72 811.01 1675.04 1134.87 1775.32 988.5C1825.54 915.212 1724.91 859.109 1796.5 806.5Z" fill="#EF5DA8"/>
</svg>
