<svg width="1920" height="1080" viewBox="0 0 1920 1080" fill="none" xmlns="http://www.w3.org/2000/svg">
    <path d="M1666 0H1920V1080.4H1707.5C1707.5 1080.4 1619.51 1052.81 1598 1005.56C1556.78 914.999 1756.45 953.171 1814.5 872.455C1915.51 732.007 1839.66 588.13 1766 431.456C1724.32 342.796 1696.33 288.505 1619.5 228.034C1524.28 153.091 1443.1 157.899 1325 131.597C1228.94 110.203 1110.5 120.044 1075.5 96.4372C1055.24 82.7693 1051.99 40.2323 1075.5 33.6526C1145.5 14.0638 1248.49 66.1802 1360 61.2778C1481.74 55.9261 1666 0 1666 0Z" fill="#F178B6"/>
    <path d="M0 0.502277H427.5C427.5 0.502277 197.025 149.266 166.5 302.371C126.039 505.313 303.387 597.754 427.5 762.959C482.246 835.83 506.822 884.503 578 941.267C775.183 1098.52 1321.5 923.485 1321.5 1034.5C1321.5 1103.5 485.5 1079.5 485.5 1079.5H0V0.502277Z" fill="#EF5DA8"/>
    <path d="M1778.98 0H1919.73V143.651C1919.73 143.651 1915.63 542.893 1863 559.5C1832.37 569.165 1867.03 480.529 1841 461.5C1795.15 427.977 1841 277.5 1763.5 161.5C1690.68 52.5 1525.57 124 1523 90.5C1520.25 54.7265 1778.98 0 1778.98 0Z" fill="#EF5DA8"/>
    <path d="M-0.000139191 340C-0.000139191 340 -3.50024 692 126.5 912.5C256.5 1133 214.504 760.399 297 779C386.604 799.203 315.504 932.225 377.5 1000C468.796 1099.81 714.5 1080 714.5 1080H-0.000139191V340Z" fill="#F178B6"/>
</svg>
